<svg xmlns="http://www.w3.org/2000/svg" viewBox="0 0 800 800">
  <g fill="#61DAFB">
    <path d="M400 0C178.3 0 0 178.3 0 400s178.3 400 400 400 400-178.3 400-400S621.7 0 400 0zm0 750C211.5 750 50 588.5 50 400S211.5 50 400 50s350 161.5 350 350-161.5 350-350 350z"/>
    <path d="M550.5 400c0-29.5-10.5-56.5-27.5-78.5l-78 78 78 78c17-22 27.5-49 27.5-78zM249.5 400c0 29.5 10.5 56.5 27.5 78.5l78-78-78-78c-17 22-27.5 49-27.5 78zM400 250c-83.3 0-150 66.7-150 150s66.7 150 150 150 150-66.7 150-150-66.7-150-150-150z"/>
  </g>
</svg>